<mxfile host="app.diagrams.net" agent="Mozilla/5.0 (Macintosh; Intel Mac OS X 10_15_7) AppleWebKit/537.36 (KHTML, like Gecko) Chrome/131.0.0.0 Safari/537.36" version="25.0.1">
  <diagram name="Page-1" id="vEoaE3_oYc02VLTp97Ej">
    <mxGraphModel dx="1186" dy="865" grid="1" gridSize="10" guides="1" tooltips="1" connect="1" arrows="1" fold="1" page="1" pageScale="1" pageWidth="850" pageHeight="1100" math="0" shadow="0">
      <root>
        <mxCell id="0" />
        <mxCell id="1" parent="0" />
        <mxCell id="wzmBFkAbrSELgNF_4OSy-1" value="AWS Cloud" style="points=[[0,0],[0.25,0],[0.5,0],[0.75,0],[1,0],[1,0.25],[1,0.5],[1,0.75],[1,1],[0.75,1],[0.5,1],[0.25,1],[0,1],[0,0.75],[0,0.5],[0,0.25]];outlineConnect=0;gradientColor=none;html=1;whiteSpace=wrap;fontSize=12;fontStyle=0;container=1;pointerEvents=0;collapsible=0;recursiveResize=0;shape=mxgraph.aws4.group;grIcon=mxgraph.aws4.group_aws_cloud;strokeColor=#232F3E;fillColor=none;verticalAlign=top;align=left;spacingLeft=30;fontColor=#232F3E;dashed=0;" vertex="1" parent="1">
          <mxGeometry x="190" y="150" width="610" height="740" as="geometry" />
        </mxCell>
        <mxCell id="wzmBFkAbrSELgNF_4OSy-2" value="cloudfront POPs" style="points=[[0,0],[0.25,0],[0.5,0],[0.75,0],[1,0],[1,0.25],[1,0.5],[1,0.75],[1,1],[0.75,1],[0.5,1],[0.25,1],[0,1],[0,0.75],[0,0.5],[0,0.25]];outlineConnect=0;gradientColor=none;html=1;whiteSpace=wrap;fontSize=12;fontStyle=0;container=1;pointerEvents=0;collapsible=0;recursiveResize=0;shape=mxgraph.aws4.group;grIcon=mxgraph.aws4.group_on_premise;strokeColor=#7D8998;fillColor=none;verticalAlign=top;align=left;spacingLeft=30;fontColor=#5A6C86;dashed=0;" vertex="1" parent="wzmBFkAbrSELgNF_4OSy-1">
          <mxGeometry x="44" y="170" width="170" height="120" as="geometry" />
        </mxCell>
        <mxCell id="wzmBFkAbrSELgNF_4OSy-6" value="cloudfront POPs" style="points=[[0,0],[0.25,0],[0.5,0],[0.75,0],[1,0],[1,0.25],[1,0.5],[1,0.75],[1,1],[0.75,1],[0.5,1],[0.25,1],[0,1],[0,0.75],[0,0.5],[0,0.25]];outlineConnect=0;gradientColor=none;html=1;whiteSpace=wrap;fontSize=12;fontStyle=0;container=1;pointerEvents=0;collapsible=0;recursiveResize=0;shape=mxgraph.aws4.group;grIcon=mxgraph.aws4.group_on_premise;strokeColor=#7D8998;fillColor=none;verticalAlign=top;align=left;spacingLeft=30;fontColor=#5A6C86;dashed=0;" vertex="1" parent="wzmBFkAbrSELgNF_4OSy-1">
          <mxGeometry x="44" y="355" width="170" height="120" as="geometry" />
        </mxCell>
        <mxCell id="wzmBFkAbrSELgNF_4OSy-7" value="cloudfront POPs" style="points=[[0,0],[0.25,0],[0.5,0],[0.75,0],[1,0],[1,0.25],[1,0.5],[1,0.75],[1,1],[0.75,1],[0.5,1],[0.25,1],[0,1],[0,0.75],[0,0.5],[0,0.25]];outlineConnect=0;gradientColor=none;html=1;whiteSpace=wrap;fontSize=12;fontStyle=0;container=1;pointerEvents=0;collapsible=0;recursiveResize=0;shape=mxgraph.aws4.group;grIcon=mxgraph.aws4.group_on_premise;strokeColor=#7D8998;fillColor=none;verticalAlign=top;align=left;spacingLeft=30;fontColor=#5A6C86;dashed=0;" vertex="1" parent="wzmBFkAbrSELgNF_4OSy-1">
          <mxGeometry x="40" y="540" width="170" height="120" as="geometry" />
        </mxCell>
        <mxCell id="wzmBFkAbrSELgNF_4OSy-10" value="" style="sketch=0;points=[[0,0,0],[0.25,0,0],[0.5,0,0],[0.75,0,0],[1,0,0],[0,1,0],[0.25,1,0],[0.5,1,0],[0.75,1,0],[1,1,0],[0,0.25,0],[0,0.5,0],[0,0.75,0],[1,0.25,0],[1,0.5,0],[1,0.75,0]];outlineConnect=0;fontColor=#232F3E;fillColor=#8C4FFF;strokeColor=#ffffff;dashed=0;verticalLabelPosition=bottom;verticalAlign=top;align=center;html=1;fontSize=12;fontStyle=0;aspect=fixed;shape=mxgraph.aws4.resourceIcon;resIcon=mxgraph.aws4.route_53;" vertex="1" parent="wzmBFkAbrSELgNF_4OSy-1">
          <mxGeometry x="90" y="30" width="78" height="78" as="geometry" />
        </mxCell>
        <mxCell id="wzmBFkAbrSELgNF_4OSy-16" value="AWS Backbone" style="shape=step;perimeter=stepPerimeter;whiteSpace=wrap;html=1;fixedSize=1;" vertex="1" parent="wzmBFkAbrSELgNF_4OSy-1">
          <mxGeometry x="220" y="570" width="140" height="60" as="geometry" />
        </mxCell>
        <mxCell id="wzmBFkAbrSELgNF_4OSy-18" value="TCP/SSL Handshake" style="text;html=1;align=center;verticalAlign=middle;resizable=0;points=[];autosize=1;strokeColor=none;fillColor=none;" vertex="1" parent="wzmBFkAbrSELgNF_4OSy-1">
          <mxGeometry x="216" y="449" width="140" height="30" as="geometry" />
        </mxCell>
        <mxCell id="wzmBFkAbrSELgNF_4OSy-20" value="" style="edgeStyle=orthogonalEdgeStyle;html=1;endArrow=block;elbow=vertical;startArrow=none;endFill=1;strokeColor=#545B64;rounded=0;" edge="1" parent="wzmBFkAbrSELgNF_4OSy-1">
          <mxGeometry width="100" relative="1" as="geometry">
            <mxPoint x="218" y="447.99999999999994" as="sourcePoint" />
            <mxPoint x="368" y="447.99999999999994" as="targetPoint" />
          </mxGeometry>
        </mxCell>
        <mxCell id="wzmBFkAbrSELgNF_4OSy-3" value="Region" style="points=[[0,0],[0.25,0],[0.5,0],[0.75,0],[1,0],[1,0.25],[1,0.5],[1,0.75],[1,1],[0.75,1],[0.5,1],[0.25,1],[0,1],[0,0.75],[0,0.5],[0,0.25]];outlineConnect=0;gradientColor=none;html=1;whiteSpace=wrap;fontSize=12;fontStyle=0;container=1;pointerEvents=0;collapsible=0;recursiveResize=0;shape=mxgraph.aws4.group;grIcon=mxgraph.aws4.group_region;strokeColor=#00A4A6;fillColor=none;verticalAlign=top;align=left;spacingLeft=30;fontColor=#147EBA;dashed=1;" vertex="1" parent="wzmBFkAbrSELgNF_4OSy-1">
          <mxGeometry x="370" y="345" width="220" height="195" as="geometry" />
        </mxCell>
        <mxCell id="wzmBFkAbrSELgNF_4OSy-9" value="" style="sketch=0;outlineConnect=0;fontColor=#232F3E;gradientColor=none;fillColor=#8C4FFF;strokeColor=none;dashed=0;verticalLabelPosition=bottom;verticalAlign=top;align=center;html=1;fontSize=12;fontStyle=0;aspect=fixed;pointerEvents=1;shape=mxgraph.aws4.network_load_balancer;" vertex="1" parent="wzmBFkAbrSELgNF_4OSy-3">
          <mxGeometry x="30" y="68" width="78" height="78" as="geometry" />
        </mxCell>
        <mxCell id="wzmBFkAbrSELgNF_4OSy-12" value="" style="sketch=0;points=[[0,0,0],[0.25,0,0],[0.5,0,0],[0.75,0,0],[1,0,0],[0,1,0],[0.25,1,0],[0.5,1,0],[0.75,1,0],[1,1,0],[0,0.25,0],[0,0.5,0],[0,0.75,0],[1,0.25,0],[1,0.5,0],[1,0.75,0]];outlineConnect=0;fontColor=#232F3E;fillColor=#ED7100;strokeColor=#ffffff;dashed=0;verticalLabelPosition=bottom;verticalAlign=top;align=center;html=1;fontSize=12;fontStyle=0;aspect=fixed;shape=mxgraph.aws4.resourceIcon;resIcon=mxgraph.aws4.ec2;" vertex="1" parent="wzmBFkAbrSELgNF_4OSy-3">
          <mxGeometry x="120" y="68" width="78" height="78" as="geometry" />
        </mxCell>
        <mxCell id="wzmBFkAbrSELgNF_4OSy-13" value="NLB" style="text;html=1;align=center;verticalAlign=middle;resizable=0;points=[];autosize=1;strokeColor=none;fillColor=none;" vertex="1" parent="wzmBFkAbrSELgNF_4OSy-3">
          <mxGeometry x="50" y="160" width="50" height="30" as="geometry" />
        </mxCell>
        <mxCell id="wzmBFkAbrSELgNF_4OSy-14" value="EC2" style="text;html=1;align=center;verticalAlign=middle;resizable=0;points=[];autosize=1;strokeColor=none;fillColor=none;" vertex="1" parent="wzmBFkAbrSELgNF_4OSy-3">
          <mxGeometry x="134" y="160" width="50" height="30" as="geometry" />
        </mxCell>
        <mxCell id="wzmBFkAbrSELgNF_4OSy-21" value="Region" style="points=[[0,0],[0.25,0],[0.5,0],[0.75,0],[1,0],[1,0.25],[1,0.5],[1,0.75],[1,1],[0.75,1],[0.5,1],[0.25,1],[0,1],[0,0.75],[0,0.5],[0,0.25]];outlineConnect=0;gradientColor=none;html=1;whiteSpace=wrap;fontSize=12;fontStyle=0;container=1;pointerEvents=0;collapsible=0;recursiveResize=0;shape=mxgraph.aws4.group;grIcon=mxgraph.aws4.group_region;strokeColor=#00A4A6;fillColor=none;verticalAlign=top;align=left;spacingLeft=30;fontColor=#147EBA;dashed=1;" vertex="1" parent="wzmBFkAbrSELgNF_4OSy-1">
          <mxGeometry x="370" y="95" width="220" height="195" as="geometry" />
        </mxCell>
        <mxCell id="wzmBFkAbrSELgNF_4OSy-25" value="" style="sketch=0;outlineConnect=0;fontColor=#232F3E;gradientColor=none;fillColor=#ED7100;strokeColor=none;dashed=0;verticalLabelPosition=bottom;verticalAlign=top;align=center;html=1;fontSize=12;fontStyle=0;aspect=fixed;pointerEvents=1;shape=mxgraph.aws4.lambda_function;" vertex="1" parent="wzmBFkAbrSELgNF_4OSy-21">
          <mxGeometry x="30" y="73.5" width="48" height="48" as="geometry" />
        </mxCell>
        <mxCell id="wzmBFkAbrSELgNF_4OSy-26" value="" style="sketch=0;points=[[0,0,0],[0.25,0,0],[0.5,0,0],[0.75,0,0],[1,0,0],[0,1,0],[0.25,1,0],[0.5,1,0],[0.75,1,0],[1,1,0],[0,0.25,0],[0,0.5,0],[0,0.75,0],[1,0.25,0],[1,0.5,0],[1,0.75,0]];outlineConnect=0;fontColor=#232F3E;fillColor=#E7157B;strokeColor=#ffffff;dashed=0;verticalLabelPosition=bottom;verticalAlign=top;align=center;html=1;fontSize=12;fontStyle=0;aspect=fixed;shape=mxgraph.aws4.resourceIcon;resIcon=mxgraph.aws4.eventbridge;" vertex="1" parent="wzmBFkAbrSELgNF_4OSy-21">
          <mxGeometry x="120" y="58.5" width="78" height="78" as="geometry" />
        </mxCell>
        <mxCell id="wzmBFkAbrSELgNF_4OSy-29" value="Pre-Warm" style="text;html=1;align=center;verticalAlign=middle;resizable=0;points=[];autosize=1;strokeColor=none;fillColor=none;" vertex="1" parent="wzmBFkAbrSELgNF_4OSy-21">
          <mxGeometry x="20" y="121.5" width="80" height="30" as="geometry" />
        </mxCell>
        <mxCell id="wzmBFkAbrSELgNF_4OSy-30" value="Idle Timeout" style="text;html=1;align=center;verticalAlign=middle;resizable=0;points=[];autosize=1;strokeColor=none;fillColor=none;" vertex="1" parent="wzmBFkAbrSELgNF_4OSy-1">
          <mxGeometry x="241" y="419" width="90" height="30" as="geometry" />
        </mxCell>
        <mxCell id="wzmBFkAbrSELgNF_4OSy-31" value="" style="edgeStyle=orthogonalEdgeStyle;html=1;endArrow=none;elbow=vertical;startArrow=block;startFill=1;strokeColor=#545B64;rounded=0;" edge="1" parent="wzmBFkAbrSELgNF_4OSy-1">
          <mxGeometry width="100" relative="1" as="geometry">
            <mxPoint x="221" y="380" as="sourcePoint" />
            <mxPoint x="370" y="200" as="targetPoint" />
            <Array as="points">
              <mxPoint x="221" y="380" />
              <mxPoint x="300" y="380" />
              <mxPoint x="300" y="200" />
            </Array>
          </mxGeometry>
        </mxCell>
        <mxCell id="wzmBFkAbrSELgNF_4OSy-4" value="" style="sketch=0;outlineConnect=0;fontColor=#232F3E;gradientColor=none;fillColor=#232F3D;strokeColor=none;dashed=0;verticalLabelPosition=bottom;verticalAlign=top;align=center;html=1;fontSize=12;fontStyle=0;aspect=fixed;pointerEvents=1;shape=mxgraph.aws4.mobile_client;" vertex="1" parent="1">
          <mxGeometry x="20" y="620" width="41" height="78" as="geometry" />
        </mxCell>
        <mxCell id="wzmBFkAbrSELgNF_4OSy-8" value="" style="edgeStyle=orthogonalEdgeStyle;html=1;endArrow=block;elbow=vertical;startArrow=none;endFill=1;strokeColor=#545B64;rounded=0;" edge="1" parent="1" source="wzmBFkAbrSELgNF_4OSy-4">
          <mxGeometry width="100" relative="1" as="geometry">
            <mxPoint x="80" y="629.5" as="sourcePoint" />
            <mxPoint x="239" y="600" as="targetPoint" />
            <Array as="points">
              <mxPoint x="140" y="660" />
              <mxPoint x="140" y="600" />
              <mxPoint x="239" y="600" />
            </Array>
          </mxGeometry>
        </mxCell>
        <mxCell id="wzmBFkAbrSELgNF_4OSy-11" value="" style="edgeStyle=orthogonalEdgeStyle;html=1;endArrow=block;elbow=vertical;startArrow=none;endFill=1;strokeColor=#545B64;rounded=0;entryX=0;entryY=0.5;entryDx=0;entryDy=0;entryPerimeter=0;" edge="1" parent="1" source="wzmBFkAbrSELgNF_4OSy-4" target="wzmBFkAbrSELgNF_4OSy-10">
          <mxGeometry width="100" relative="1" as="geometry">
            <mxPoint x="40" y="570" as="sourcePoint" />
            <mxPoint x="140" y="690" as="targetPoint" />
            <Array as="points">
              <mxPoint x="41" y="219" />
            </Array>
          </mxGeometry>
        </mxCell>
        <mxCell id="wzmBFkAbrSELgNF_4OSy-19" value="TCP/SSL Handshake" style="text;html=1;align=center;verticalAlign=middle;resizable=0;points=[];autosize=1;strokeColor=none;fillColor=none;" vertex="1" parent="1">
          <mxGeometry x="50" y="668" width="140" height="30" as="geometry" />
        </mxCell>
      </root>
    </mxGraphModel>
  </diagram>
</mxfile>
